extratorrent.com
 
http://www.imdb.com/title/tt1555064/
Quote:
Format : AVI
Format/Info : Audio Video Interleave
File size : 704 MiB
Duration : 1h 56mn
Overall bit rate : 845 Kbps

Video
ID : 0
Format : MPEG-4 Visual
Format profile : Advanced Simple@L5
Format settings, BVOP : 2
Format settings, QPel : No
Format settings, GMC : No warppoints
Format settings, Matrix : Default (H.263)
Muxing mode : Packed bitstream
Codec ID : XVID
Duration : 1h 56mn
Bit rate : 705 Kbps
Width : 656 pixels
Height : 384 pixels
Display aspect ratio : 16:9
Frame rate : 29.970 fps
Color space : YUV
Chroma subsampling : 4:2:0
Bit depth : 8 bits
Scan type : Progressive
Compression mode : Lossy
Bits/(Pixel*Frame) : 0.093
Stream size : 587 MiB (83%)

Audio
ID : 1
Format : MPEG Audio
Codec ID/Hint : MP3
Duration : 1h 56mn
Bit rate mode : Constant
Bit rate : 128 Kbps
Channel(s) : 2 channels
Sampling rate : 48.0 KHz
Compression mode : Lossy
Stream size : 107 MiB (15%)
Interleave, duration : 33 ms (1.00 video frame)
Interleave, preload duration : 500 ms
Writing library : LAME3.98r


Screens:-
 
http://leetleech.org/images/41498147697693102178.png
 
http://leetleech.org/images/95863216435444790371.png
 
http://leetleech.org/images/66485432876216809505.png
 
http://leetleech.org/images/55302074127845605108.png